/* XPM */
static char *_8653b5105574794fc3278a17c37823eMpFN1Ym9zkghKtMZ[] = {
/* columns rows colors chars-per-pixel */
"40 30 254 2 ",
"   c #147F0F",
".  c #237A1E",
"X  c #335A2B",
"o  c #3D5734",
"O  c #3B5833",
"+  c #2F6A28",
"@  c #47473E",
"#  c #405237",
"$  c #46553E",
"%  c #583B4D",
"&  c #5F3054",
"*  c #5E3A53",
"=  c #5F3F54",
"-  c #6A275E",
";  c #653459",
":  c #761D69",
">  c #7C196E",
",  c #6F2362",
"<  c #524147",
"1  c #5E4453",
"2  c #5F4C56",
"3  c #68555E",
"4  c #7F6F7D",
"5  c #7C7C7C",
"6  c #915634",
"7  c #9F682F",
"8  c #9C6034",
"9  c #A46936",
"0  c #AD703C",
"q  c #B2743E",
"w  c #BB7C3F",
"e  c #97335B",
"r  c #890D7A",
"t  c #8C0A7D",
"y  c #841176",
"u  c #821474",
"i  c #922463",
"p  c #952763",
"a  c #992A63",
"s  c #9D2D62",
"d  c #9F2F62",
"f  c #A43462",
"g  c #A63662",
"h  c #AB3A62",
"j  c #AD3C63",
"k  c #B3426A",
"l  c #B3436A",
"z  c #B34373",
"x  c #B3447C",
"c  c #B6447C",
"v  c #81647E",
"b  c #81667E",
"n  c #816A7F",
"m  c #079004",
"M  c #089404",
"N  c #0E9B0B",
"B  c #10960C",
"V  c #1A8515",
"C  c #01A300",
"Z  c #05AB04",
"A  c #03B101",
"S  c #01B301",
"D  c #03B002",
"F  c #00BA00",
"G  c #00BB00",
"H  c #02BB00",
"J  c #00BC00",
"K  c #00BD00",
"L  c #01C501",
"P  c #02C800",
"I  c #00CD00",
"U  c #00D700",
"Y  c #00DC00",
"T  c #01DC01",
"R  c #00DE00",
"E  c #00E100",
"W  c #00E600",
"Q  c #00E800",
"!  c #06E806",
"~  c #00F100",
"^  c #00F700",
"/  c #07FD06",
"(  c #1EEB1D",
")  c #1BF11A",
"_  c #30EE2F",
"`  c #25FC23",
"'  c #3CF83A",
"]  c #40F240",
"[  c #6FFC6D",
"{  c #73FD71",
"}  c #9E9C00",
"|  c #B4B200",
" . c #B6B300",
".. c #BF803F",
"X. c #CDBC2E",
"o. c #C5C207",
"O. c #D5D21F",
"+. c #D9CE27",
"@. c #DAD82A",
"#. c #D2CD37",
"$. c #E3DF2D",
"%. c #E7E32E",
"&. c #ECE72F",
"*. c #F0EC3B",
"=. c #BDAA5B",
"-. c #91896D",
";. c #B9A876",
":. c #B0BF77",
">. c #BFBD79",
",. c #C88842",
"<. c #CB8B45",
"1. c #D59655",
"2. c #D69859",
"3. c #C2BD55",
"4. c #D69969",
"5. c #D69A79",
"6. c #D89A7B",
"7. c #C4C04B",
"8. c #C5C04B",
"9. c #DCD844",
"0. c #C4C052",
"q. c #C4C053",
"w. c #C4C056",
"e. c #F3F041",
"r. c #ECE951",
"t. c #F4F058",
"y. c #FDFB5B",
"u. c #FEFD68",
"i. c #F4F17B",
"p. c #FEFE7C",
"a. c #930583",
"s. c #930683",
"d. c #950385",
"f. c #960186",
"g. c #960286",
"h. c #970587",
"j. c #960687",
"k. c #970687",
"l. c #900881",
"z. c #940B86",
"x. c #950B87",
"c. c #940C86",
"v. c #950C86",
"b. c #950C87",
"n. c #960D87",
"m. c #970088",
"M. c #960089",
"N. c #970089",
"B. c #96008A",
"V. c #97008A",
"C. c #96008B",
"Z. c #97008B",
"A. c #970488",
"S. c #970588",
"D. c #980088",
"F. c #990088",
"G. c #980188",
"H. c #990089",
"J. c #9A0089",
"K. c #9A0189",
"L. c #98008A",
"P. c #98008B",
"I. c #9A008A",
"U. c #9B008B",
"Y. c #99008C",
"T. c #940B89",
"R. c #94098B",
"E. c #950C88",
"W. c #941286",
"Q. c #931886",
"!. c #911F85",
"~. c #8D2F83",
"^. c #8E2B84",
"/. c #902185",
"(. c #902584",
"). c #8A3F82",
"_. c #923388",
"`. c #865180",
"'. c #895383",
"]. c #8F5889",
"[. c #866082",
"{. c #887B87",
"}. c #808280",
"|. c gray51",
" X c #828482",
".X c #838483",
"XX c #858785",
"oX c #878987",
"OX c #868A86",
"+X c #898789",
"@X c #928391",
"#X c #968895",
"$X c #909090",
"%X c gray57",
"&X c #919291",
"*X c #929292",
"=X c gray58",
"-X c #959795",
";X c #979797",
":X c gray62",
">X c #9F9F9F",
",X c #AB9B9E",
"<X c #B7A887",
"1X c #B4A58E",
"2X c #A293A1",
"3X c #A293A2",
"4X c #A798A4",
"5X c #A0A0A0",
"6X c gray63",
"7X c gray64",
"8X c #A5A5A5",
"9X c gray66",
"0X c #A8A9A9",
"qX c #AAAAAA",
"wX c #AEAFAF",
"eX c #B1B1AF",
"rX c #B1B1B2",
"tX c #B2B2B3",
"yX c gray70",
"uX c #B2B2B4",
"iX c gray72",
"pX c #BABABB",
"aX c #88FD87",
"sX c #8EFC8D",
"dX c #94FC94",
"fX c #9CFD9C",
"gX c #DFDE88",
"hX c #CBC891",
"jX c #CEFE91",
"kX c #EBEA88",
"lX c #F2F083",
"zX c #FDFC8A",
"xX c #FEFF8B",
"cX c #FAF98F",
"vX c #FEFD8E",
"bX c #FDFE8F",
"nX c #FAFB91",
"mX c #FDFC91",
"MX c #F9F995",
"NX c #FFFF96",
"BX c #FDFC9F",
"VX c #C2C0A2",
"CX c #C3C3A8",
"ZX c #C7C6B6",
"AX c #C5C6BC",
"SX c #CDCCB8",
"DX c #F9F9A7",
"FX c #F9F9A9",
"GX c #FDFDB0",
"HX c #F9F9BB",
"JX c #F9F9BD",
"KX c #C2C2C4",
"LX c #C5C5C4",
"PX c #C8C8CA",
/* pixels */
"D.D.D.D.D.D.D.D.D.D.D.D.D.D.D.D.D.D.D.D.D.D.D.D.D.D.D.D.D.D.D.D.D.D.D.D.D.D.D.D.",
"D.D.D.D.D.D.D.D.D.D.D.D.D.D.D.D.D.D.D.D.D.D.D.D.D.D.D.D.D.D.D.D.D.D.D.D.D.D.D.D.",
"D.D.D.D.D.D.D.D.D.D.D.D.D.D.D.D.D.D.D.D.N.D.D.D.D.D.D.D.D.D.D.D.D.D.D.D.D.D.D.D.",
"D.D.D.D.D.D.D.D.D.D.D.D.D.D.D.D.D.D.U.D.U.U.U.D.D.D.D.D.D.D.D.D.D.D.D.D.D.D.D.D.",
"D.D.D.D.D.D.D.D.D.D.D.D.D.D.U.t > # o o o o O < r a.D.f.D.D.D.D.D.D.D.D.D.D.D.D.",
"D.D.D.D.D.D.D.D.D.D.D.D.D.r % V N A K K K K H Z B + - f.D.D.D.D.D.D.D.D.D.D.D.D.",
"D.D.D.D.D.D.D.D.D.D.D.D.a.X C P T E ! _ ] ( Q E U K m ; D.D.D.D.D.D.D.D.D.D.D.D.",
"D.D.D.D.D.D.D.D.D.D.D.f.a.< M L W ^ ` sXfX[ / ~ T A   , U.D.D.D.D.D.D.D.D.D.D.D.",
"D.D.D.D.D.D.D.D.D.D.D.D.D.a.: . H T ' aXdX{ ( I A $ y D.D.D.D.D.D.D.D.D.D.D.D.D.",
"D.D.D.D.D.D.D.D.D.D.D.D.D.D.U.u * 1 3 :.jX-.2 1 ; a.U.D.D.D.D.D.D.D.D.D.D.D.D.D.",
"D.D.D.D.D.D.D.D.D.D.D.D.D.D.D.D.U.U.D.6.NXx U.U.D.D.D.D.D.D.D.D.D.D.D.D.D.D.D.D.",
"D.D.D.D.D.D.D.D.D.D.D.D.D.D.D.D.D.N.N.5.xXx N.D.D.D.D.D.D.D.D.D.D.D.D.D.D.D.D.D.",
"D.D.D.D.D.D.D.D.D.D.D.D.D.D.D.D.D.D.N.4.p.z N.D.D.D.D.D.D.D.D.D.D.D.D.D.D.D.D.D.",
"D.D.D.D.D.D.D.D.D.D.D.D.D.D.D.D.D.D.N.2.u.l Z.N.D.D.D.D.D.D.D.D.D.D.D.D.D.D.D.D.",
"D.D.D.D.D.D.D.D.D.D.D.D.D.D.D.D.D.D.N.1.y.l N.D.D.D.D.D.D.D.D.D.D.D.D.D.D.D.D.D.",
"D.D.D.D.D.D.D.D.D.D.D.D.D.D.D.D.D.D.N.<.e.j Z.D.D.D.D.D.D.D.D.D.D.D.D.D.D.D.D.D.",
"D.D.D.D.D.D.D.D.D.D.D.D.D.D.D.D.D.D.N.,.*.h Z.N.N.f.D.D.D.D.D.D.D.D.D.D.D.D.D.D.",
"D.D.D.D.D.D.D.D.D.D.D.D.D.D.D.D.D.D.N...%.g Z.N.D.D.D.D.D.D.D.D.D.D.D.D.D.D.D.D.",
"D.D.D.D.D.D.D.D.D.D.D.D.D.D.D.D.D.D.N.w %.f N.N.D.D.D.D.D.D.D.D.D.D.D.D.D.D.D.D.",
"D.D.D.D.D.D.D.D.D.D.D.D.D.D.D.D.D.D.N.q @.d Z.N.D.D.D.D.D.D.D.D.D.D.D.D.D.D.D.D.",
"D.D.D.D.D.D.D.D.D.D.D.D.D.D.D.D.D.D.N.0 +.s U.N.D.D.D.D.D.D.D.D.D.D.D.D.D.D.D.D.",
"D.D.D.D.D.D.D.D.D.D.D.D.D.D.D.D.D.D.Z.9 o.a D.D.D.D.D.D.D.D.D.D.D.D.D.D.D.D.D.D.",
"D.D.D.D.D.D.D.D.D.D.D.D.D.D.D.N.D.D.D.8 | p N.N.D.D.D.D.D.D.D.D.D.D.D.D.D.D.D.D.",
"D.D.D.D.D.D.D.D.D.D.D.D.D.D.D.N.D.D.D.6 } i N.N.D.D.D.D.D.D.D.D.D.D.D.D.D.D.D.D.",
"D.D.D.D.D.D.D.D.C.N.N.N.S.c.c.b.b.R.z.7  .e R.b.b.b.b.a.D.D.D.D.D.D.D.D.D.D.D.D.",
"D.D.D.D.D.D.D.D.C.C.W.~.'.{.@X3X,X<X=.+.&.X.;.1X4X3X#X]._.^.S.D.D.D.D.D.D.D.D.D.",
"D.D.D.D.D.D.D.D.R.).n XX$X0XCXkXi.vXxXBXGXmXvXnXlXgXAXwX;X+X[.(.D.D.D.D.D.D.D.D.",
"D.D.D.D.D.D.D.D./.5 |.%X6XpXhX9.t.MXFXJXJXHXDXcXr.#.SXKX8X;XoXb S.D.D.D.D.D.D.D.",
"D.D.D.D.D.D.D.D.Q.4 -.*X>XtXLXVX3.7.0.w.w.w.w.7.>.ZXPXuX7X;XoXb a.D.D.D.D.D.D.D.",
"D.D.D.D.D.D.D.D.D./.`.|.=X>XqXtXrXeXeXeXeXeXwXeXuXuX0X,X;X$X{.`.D.D.D.D.D.D.D.D."
};
