/* XPM */
static char *_0b81812cfba4620e4f4c7db3e075209IV3C07ENfyvx8bbo[] = {
/* columns rows colors chars-per-pixel */
"40 30 190 2 ",
"   c black",
".  c gray1",
"X  c gray3",
"o  c #0B0B0B",
"O  c gray11",
"+  c #252525",
"@  c gray22",
"#  c gray25",
"$  c #4B4B4B",
"%  c #535353",
"&  c #767676",
"*  c gray49",
"=  c #B0167E",
"-  c #B41A7C",
";  c #B91F79",
":  c #BE2377",
">  c #BF2377",
",  c #BF2477",
"<  c #BC2278",
"1  c #C32775",
"2  c #C12676",
"3  c #C22676",
"4  c #C52974",
"5  c #C52A74",
"6  c #CB2F72",
"7  c #CD3171",
"8  c #F2515E",
"9  c #F2525F",
"0  c #F3525F",
"q  c #F5565F",
"w  c #F6565F",
"e  c #FC5959",
"r  c #FC5A5A",
"t  c #FC5B5B",
"y  c #FD5C5B",
"u  c #FD5D5B",
"i  c #FE5D5B",
"p  c #FE5E5B",
"a  c #F9595D",
"s  c #FA5A5D",
"d  c #FB5B5D",
"f  c #FC5C5C",
"g  c #FD5D5C",
"h  c #FC5D5D",
"j  c #FC5E5E",
"k  c #FD5E5E",
"l  c #FC5F5F",
"z  c #FD605F",
"x  c #E44566",
"c  c #E44667",
"v  c #E64866",
"b  c #EB4D63",
"n  c #EC4D63",
"m  c #ED4E63",
"M  c #EA4B64",
"N  c #E04368",
"B  c #E14368",
"V  c #E24468",
"C  c #F25360",
"Z  c #F35360",
"A  c #F25261",
"S  c #F35460",
"D  c #FB6161",
"F  c #FB6262",
"G  c #FC6060",
"H  c #FC6161",
"J  c #FC6262",
"K  c #FB6565",
"L  c #FB6767",
"P  c #FC6666",
"I  c #FC6767",
"U  c #FA6B6B",
"Y  c #FC6969",
"T  c #FC6C6B",
"R  c #FB6C6C",
"E  c #FB6E6D",
"W  c #FC6D6D",
"Q  c #FB7272",
"!  c #FA7676",
"~  c #FA7776",
"^  c #F87B7B",
"/  c #FB7A7A",
"(  c #FB7B7B",
")  c #F97D7D",
"_  c #9F0685",
"`  c #9F0785",
"'  c #970088",
"]  c #960089",
"[  c #970089",
"{  c #980088",
"}  c #990188",
"|  c #A30A83",
" . c #A30B83",
".. c #A20984",
"X. c #A90F81",
"o. c #848484",
"O. c #878989",
"+. c #999B9B",
"@. c #9B9F9F",
"#. c gray62",
"$. c #A9A9A9",
"%. c #ACACAC",
"&. c #B2B2B2",
"*. c #B6B6B6",
"=. c #B9B9B9",
"-. c #B9BABA",
";. c #FA8181",
":. c #F98585",
">. c #FA8686",
",. c #FB8787",
"<. c #F98B8B",
"1. c #F98C8C",
"2. c #F88D8D",
"3. c #F98D8D",
"4. c #FB8D8D",
"5. c #F79494",
"6. c #F59A9A",
"7. c #F89999",
"8. c #F89C9C",
"9. c #F5A0A0",
"0. c #F7A0A0",
"q. c #F7A1A1",
"w. c #F6A7A7",
"e. c #F5A9A9",
"r. c #F6A8A8",
"t. c #F6A9A9",
"y. c #F7AAAA",
"u. c #F7ABAB",
"i. c #F4AEAE",
"p. c #F5AFAF",
"a. c #F5B1B1",
"s. c #F7B0B0",
"d. c #F7B1B1",
"f. c #F3B7B7",
"g. c #F4B6B6",
"h. c #F3B9B9",
"j. c #F7B8B8",
"k. c #F3BCBC",
"l. c #F3BFBF",
"z. c #C1C1C1",
"x. c #C5C6C6",
"c. c gray81",
"v. c gray83",
"b. c #D6D7D7",
"n. c #DDDADA",
"m. c #F2C3C3",
"M. c #F1C4C4",
"N. c #F0C6C6",
"B. c #F0C8C8",
"V. c #F2C8C8",
"C. c #F3C9C9",
"Z. c #F1CCCC",
"A. c #F1CFCF",
"S. c #F3CECE",
"D. c #EFD4D4",
"F. c #EADADA",
"G. c #EDD8D8",
"H. c #EFDADA",
"J. c #EFDFDF",
"K. c #F0D0D0",
"L. c #F1D1D1",
"P. c #F0D4D4",
"I. c #F1D4D4",
"U. c #F0D9D9",
"Y. c gray88",
"T. c #E1E2E2",
"R. c #E6E6E6",
"E. c #EEE1E1",
"W. c #EDE3E3",
"Q. c #EFE3E3",
"!. c #EEE4E4",
"~. c #EDE6E6",
"^. c #EFE6E6",
"/. c #E9E9E9",
"(. c #ECE8E8",
"). c #EDE9E9",
"_. c #ECEBEB",
"`. c #EDEBEB",
"'. c #ECECEC",
"]. c #EDECEC",
"[. c #ECEDED",
"{. c gray93",
"}. c #ECEEEE",
"|. c #EDEEEE",
" X c #ECEFEF",
".X c #EDEFEF",
"XX c #EEEEEE",
"oX c #EEEFEF",
"OX c #EFEFEF",
"+X c #EFF3F3",
/* pixels */
"{ { { { { { { { 6 d r d d p d u d u d u d p d d u d d p d d p S = ' { { { { { { ",
"{ { { { { { [ < d t d p u d u d u d u d d p d p d u d p d p d p n ..' { { { { { ",
"{ { { { ' [ ` V p d t d d F D p d d d u d d p d u r d D S t r d f 4 [ { { { { { ",
"{ { { { ' [ < d f t H 2.k.D.g.>.z r u d p d d d r ( u.P.S.7.U u p b ..[ { { { { ",
"{ { { { ' { B p p U f.!.[.[.[.E.i.L u d d p f p 6.U.x.O.#.n.V./ r p < [ { { { { ",
"{ { { { { { B p H f.[.[.[.`.[.[.[.r.d d u d p 2.(.[.& . O *.+XA.E p < [ { { { { ",
"{ { { { [ - q p 2.!.[.[.[.[.`.[.[.J.;.r d r E Z.[.[.* o + =.oX`.w.p x ` { { { { ",
"{ { [ [ [ , p d j.[._._.[._.[.`.'.[.p.u u u 2.!.[.`.c.#.%.Y.[.[.P.E 9 ..' { { { ",
"{ { { { [ < u z A.}.'.'.[.[.[.[.'. XN.f t e q.[.[.`.[.oX[.[.`.[.(.! C ..[ { { { ",
"{ { { { [ : u z p.[.[.R.$.o.&._.'.'.y.f t t <.E.[.[.'.'.[.`.`.[.A.E 9 ..[ { { { ",
"{ { { { [ < u r ) E.oXv.@   $ Y.[.H.( f f f D M.[.[.`.'.'.'.[.).8.p C ..' { { { ",
"{ { { { [ < u u z i.oXb.# X % T.].9.p f f f r :.!.[.[.'.'.'.oXB.U r C ..' { { { ",
"{ { { { [ : u d u L a.F.=.@.z.G.r.J p p d u d u 5.D.'.}.[.~.l.~ r p C ..' { { { ",
"{ { { { [ : u u r u D ;.a.V.y.( S z p p u d u d u Q 8.N.h.1.F z d p C ..' { { { ",
"{ { { { [ : u d d d u u p p d d d p d d d u d u r u r d u u u u d p 9 ..' { { { ",
"{ { { { [ : u u d u u d d d d p d d d p u d u d u d d u d d u u d p S ..' { { { ",
"{ { { { [ : u d u d u d u d u d p d p d d u d u d u d u d u d u d p C ..[ ' { { ",
"{ { { { [ < u u d u d u d u d u d r p d u d u d u d u d u d u d d p C ..' { { { ",
"{ { ' { ] < u d u d u d u d u d d u d u d u d u d u d u d u d u d p C ..' { { { ",
"{ { ' ' ' : u u d u d u d u d u u d u d u d u d u d u d u d u d d p C ..' { { { ",
"{ { { { [ < u u u d u d u d u d d u d u d u d u d u d u d u d u d p C ..' { { { ",
"{ { { { [ : u u d u d u d u d u u d u d u d u d u d u d u d u d d p C ..' { { { ",
"{ { { { [ < p d u d u d u d u d d u d u d u d u d u d u d u d u d p 9 ..' { { { ",
"{ { { { [ : u u d u d u d u d u u d u d u d u d u d u d u d u d d p S ..' { { { ",
"{ { { { [ : u u u d u d u d u d d u d u d u d u d u d u d u d u d p S ..[ ' { { ",
"{ { { { [ : u u d u d u d u d u u d u d u d u d u d u d u d u d p d C ..' ' { { ",
"{ { { { [ : u d u d u d u d u d d u d u d u d u d u d u d u d u d p 9 ..' { { { ",
"{ { { { [ : u u d u d u d u d u u d u d u d u d u d u d u d u d p d S ..' ' { { ",
"{ { { { ] - q p u d u d p d p p d r d p d u d u d d d u d p d u p d v ` { { { { ",
"{ { { { [ ' : d d d d u d 7 3 1 b p d d u d u d p p C 4 3 v p d p m X.[ { { { { "
};
